<svg xmlns="http://www.w3.org/2000/svg" fill="none" viewBox="0 0 1024 1024"><path fill="#1D9BF0" fill-rule="evenodd" d="M225 249.4C75.6 440.8 81.6 812 250.2 851c159.8 37 257.2-47.4 336.4-115.9 31.7-27.5 60.6-52.4 89.3-66 11.2-5.3 21.4-10 31-14.3 67.4-31 98.5-45.3 155-120.6 64.6-86 84.1-168.9 55-249.8-29-81-76-151.5-241-81-69 29.5-132.9 8.9-194.9-11-86.3-27.9-168.8-54.4-255.8 57ZM702 396.9c0-4.2 0-8.4-.3-12.6 19.1-13.9 35.6-31 48.8-50.7-17.9 8-36.8 13.1-56.2 15.4a98.1 98.1 0 0 0 43-54 196.2 196.2 0 0 1-62 23.7 97.9 97.9 0 0 0-166.6 89.1c-78.6-3.9-151.9-41-201.5-102a97.9 97.9 0 0 0 30.3 130.4A97.1 97.1 0 0 1 293 424v1.2a97.8 97.8 0 0 0 78.4 95.9 97.4 97.4 0 0 1-44.1 1.6 97.9 97.9 0 0 0 91.3 68A196.3 196.3 0 0 1 273.9 631 276.7 276.7 0 0 0 423.8 675v.1c179.7 0 278-149 278-278Z" clip-rule="evenodd"/></svg>